<svg width="188" height="33" viewBox="0 0 188 33" fill="none" xmlns="http://www.w3.org/2000/svg">
<path d="M1.49748 12.4648C3.47105 12.8214 7.51688 13.2069 11.1186 13.3997C13.5856 13.525 15.6085 13.5442 22.7134 13.496L31.3477 13.4286L32.8279 13.737L34.3081 14.0454L32.3345 13.9587C29.8182 13.8623 5.34595 13.9105 4.80321 14.0165C4.06313 14.1611 7.51688 14.5658 10.9213 14.7393C15.1645 14.961 22.8121 14.9128 29.0781 14.6237C31.6438 14.508 34.4068 14.4116 35.1962 14.4116C36.479 14.4116 40.4262 14.855 40.4755 14.9995C40.4755 15.0381 38.9953 15.0959 37.1205 15.1345C35.2949 15.1634 31.9398 15.2598 29.6209 15.3369C17.0887 15.7706 14.079 15.8573 12.3028 15.8573C7.86224 15.8573 11.464 16.2428 16.5953 16.3199C22.072 16.3874 29.0781 16.1657 38.502 15.6164C42.8931 15.3561 43.3372 15.3465 44.4227 15.5007C45.0147 15.5778 45.3108 15.6646 45.0641 15.6935C44.8667 15.7127 38.2059 15.9826 30.361 16.2814C22.4667 16.5802 15.0658 16.8789 13.8323 16.9368L11.612 17.0524L13.8323 17.1873C15.3618 17.2837 18.8156 17.3319 24.9336 17.3319L33.8147 17.3512L38.1072 16.9946C40.4262 16.8018 43.7812 16.5031 45.4588 16.3296C48.5672 16.0308 48.5672 16.0308 50.1954 16.1946C51.0835 16.291 51.7742 16.3874 51.6755 16.397C51.5769 16.4163 49.2086 16.5609 46.3469 16.7247C35.5909 17.3415 34.1107 17.4283 26.9072 17.9005C22.8121 18.1704 18.9636 18.4403 18.2728 18.5077L17.0394 18.633L18.4209 18.739C19.2103 18.7969 20.7891 18.845 22.0226 18.845H24.2429L23.1081 19.1342C22.2693 19.3655 22.1706 19.4522 22.664 19.5486C23.9469 19.7992 34.9495 19.7221 41.0182 19.4233C42.8931 19.3269 50.5901 18.3535 55.6227 17.5729C57.991 17.2066 58.9778 17.1102 59.7672 17.1584C61.0007 17.2355 60.7046 17.303 57.3002 17.6692C55.8694 17.8234 52.465 18.2668 49.8006 18.6427C44.768 19.3751 37.0218 20.3389 33.9134 20.6281C31.5945 20.8401 31.5945 21.0232 33.9134 21.1485C36.2817 21.2834 39.2914 21.1485 43.4359 20.7244C46.2482 20.4257 49.0112 20.0209 61.6914 18.0162C64.2571 17.6114 66.132 17.4765 66.132 17.6885C66.132 17.7367 65.9346 17.7849 65.7372 17.7849C65.2932 17.7849 58.8297 18.8065 55.7214 19.3751C52.0209 20.0401 45.8535 20.9557 42.4984 21.3509C40.5249 21.5822 39.0447 21.8135 39.1434 21.8713C39.5381 22.0834 43.9293 21.9388 47.4817 21.5918C53.6491 20.9847 54.1425 20.9075 65.2438 18.5752C68.5002 17.9005 69.191 17.8234 70.7698 17.9391C72.0527 18.0355 71.7073 18.1511 68.9443 18.4981C64.6024 19.0474 63.2209 19.3269 57.6456 20.7437C54.6852 21.4955 52.0703 22.1412 51.8236 22.1701C51.5275 22.2087 51.3302 22.2954 51.3302 22.3821C51.3302 22.5942 54.3892 22.4689 56.8562 22.1412C59.0271 21.8617 63.813 20.7341 67.8588 19.5583C70.6218 18.7487 72.9901 18.2764 74.421 18.2571C77.3813 18.2186 77.924 18.3921 75.6544 18.6619C72.25 19.0667 69.0923 19.7317 67.0201 20.4738C64.3557 21.4184 61.9874 22.0641 60.4579 22.2568C59.7672 22.3436 59.2245 22.4592 59.2245 22.5074C59.2245 22.6809 61.2474 22.7098 63.0236 22.546C65.8853 22.2954 68.5496 21.6786 72.398 20.4257C75.8518 19.298 79.4042 18.4499 80.5884 18.4692C80.9337 18.4788 81.7232 18.5077 82.3646 18.5463C83.5487 18.6041 83.45 18.633 80.5884 19.0667C76.8879 19.6354 74.717 20.2233 73.2368 21.0425C72.4967 21.4762 71.7566 21.7075 71.1152 21.7557C69.9804 21.8328 69.7831 22.0255 70.6218 22.1894C71.0659 22.2761 71.0165 22.3629 70.3751 22.5556C69.5857 22.7869 69.339 22.7966 67.0694 22.7387C64.3557 22.6713 60.9513 22.864 59.5205 23.1724C58.3857 23.4134 58.7804 23.4616 64.4051 23.7122C65.8359 23.7796 72.1513 24.1459 73.1875 24.223C73.6809 24.2615 69.7831 24.2904 64.4544 24.2904H54.8333L53.3531 24.5699C51.6755 24.888 51.2808 25.1771 52.6623 25.0615C53.6491 24.9844 58.0896 24.9362 70.2765 24.8783C77.2826 24.8494 78.4668 24.8591 77.924 24.9747C77.3813 25.0711 75.0624 25.1193 68.8456 25.1482C60.1126 25.1964 58.3857 25.2639 52.761 25.7747C50.5901 25.9771 46.6923 26.6517 47.6791 26.6517C47.9751 26.6517 50.0473 26.5361 52.3663 26.4011C60.2112 25.9289 70.2765 25.4952 73.4835 25.4952H75.161L73.9769 25.7457C73.2368 25.9 72.7928 26.112 72.7928 26.3433C72.7434 26.5361 72.5461 27.0661 72.3487 27.5191C71.8553 28.4733 72.5954 29.572 73.9769 30.1021C74.9143 30.4587 77.6773 31.0177 79.947 31.3164C82.5619 31.6538 82.5619 31.461 79.9963 30.7189C78.9108 30.4105 77.776 30.0346 77.4306 29.8804C76.5425 29.4467 75.9998 27.7986 76.3452 26.6035C76.6412 25.5723 76.6906 25.5434 78.3188 25.2157C80.1936 24.8398 80.3417 24.9073 78.9602 25.6108C77.628 26.3047 76.7399 28.0492 77.48 28.5793C78.5161 29.3407 81.5751 30.2273 83.9434 30.4683C84.7822 30.5454 85.5716 30.5936 85.7197 30.5647C85.8677 30.5358 85.2756 30.2273 84.3875 29.8804C81.9699 28.907 80.9337 28.0106 80.9337 26.8445C80.9337 25.341 81.6245 24.647 83.4994 24.2712C84.3875 24.0977 85.1276 23.9724 85.2263 23.982C85.2756 24.0013 84.9302 24.2615 84.3382 24.5699C83.0553 25.312 82.6113 26.4686 83.3514 27.3649C84.3875 28.6082 88.1866 30.2852 89.4694 30.0346C89.8148 29.9671 89.6668 29.8129 88.9267 29.5238C87.1998 28.8588 86.8545 28.5986 86.3611 27.6926C85.4236 25.9192 87.9399 23.7122 91.3937 23.2881C92.8738 23.105 92.9725 23.211 91.739 23.6736C88.6307 24.8687 87.8412 26.6613 90.0122 27.5769C91.443 28.1745 94.058 28.772 95.2421 28.772C96.0809 28.772 96.0809 28.7335 94.9461 28.1745C94.3047 27.8468 93.4166 27.1722 93.0219 26.6903C92.3805 25.9 92.3805 25.6879 93.0219 24.8012C94.2553 23.1724 94.6501 22.9026 96.2783 22.7387C97.9558 22.5749 97.9065 22.5556 96.9197 23.0953C95.7355 23.7507 95.8342 25.5723 97.1664 26.4204C98.3998 27.2107 99.88 27.7119 100.965 27.7119C101.656 27.7119 101.755 27.6348 101.459 27.1529C100.669 25.7554 100.571 25.0133 101.114 24.0688C102.002 22.5749 102.643 21.9966 103.728 21.8039C105.11 21.5726 105.653 21.6015 105.11 21.8521C104.863 21.9774 104.173 22.4207 103.58 22.8448C102.15 23.8664 102.396 25.6012 104.074 26.2373C104.666 26.4686 105.307 26.6517 105.554 26.6517C105.751 26.6517 106.097 26.1987 106.294 25.6494C106.59 24.7145 107.478 23.5676 108.514 22.7966C108.86 22.5267 108.958 22.6424 109.008 23.3941C109.057 24.4446 109.995 25.3506 111.82 26.1216C113.596 26.8927 114.188 26.8156 113.794 25.8518C113.448 25.0229 113.892 24.1459 115.225 23.0857C116.359 22.2087 116.655 21.4087 116.063 21.0714C115.57 20.8015 115.669 20.7533 117.099 20.5509C120.504 20.0594 129.928 19.4426 141.621 18.9318C145.025 18.7872 148.825 18.7198 155.436 18.6812C164.959 18.6234 175.566 18.7101 174.826 18.845C174.629 18.8836 173.1 19.0571 171.471 19.2306C169.843 19.404 167.672 19.6546 166.636 19.7799L164.712 20.0112L162.196 19.7799C160.765 19.6546 157.755 19.4715 155.387 19.3751C151.538 19.2209 150.897 19.2209 147.492 19.3559C143.397 19.5293 139.154 19.8474 139.154 20.0016C139.154 20.0498 139.154 20.1269 139.105 20.1654C139.105 20.2136 139.598 20.2715 140.24 20.3004C141.078 20.3486 141.177 20.3775 140.634 20.416C136.095 20.7244 135.207 20.8112 135.207 20.9268C135.207 21.0907 134.566 21.0714 144.581 21.1196C154.647 21.1678 157.41 21.1967 157.41 21.2352C157.41 21.2545 156.719 21.3894 155.88 21.534C154.4 21.8039 154.4 21.8039 151.588 21.6689C141.522 21.1774 130.026 21.3509 130.026 21.9774C130.026 22.1701 130.322 22.1701 141.473 22.1316C147.788 22.1123 152.969 22.1219 152.969 22.1508C152.969 22.1797 152.624 22.2665 152.278 22.3436C151.686 22.4592 151.045 22.4689 148.923 22.3918C144.137 22.2087 130.224 22.4978 126.819 22.8448C126.129 22.9122 124.944 23.105 124.155 23.2688C122.477 23.6158 123.069 23.664 126.178 23.4327C129.138 23.211 132.937 23.0953 141.078 22.9893C145.272 22.9315 148.874 22.864 149.071 22.8351C149.861 22.7387 149.959 22.97 149.121 23.1146C148.43 23.2303 147.69 23.2399 144.828 23.1628C139.647 23.0182 134.023 23.2014 129.089 23.664C124.254 24.117 120.06 24.8012 120.553 25.0518C120.899 25.2253 121.787 25.2157 124.106 25.0133C132.247 24.3193 139.401 23.8471 145.568 23.6061C147.246 23.5483 147.246 23.5483 146.456 23.77C145.864 23.9435 145.075 24.0206 143.052 24.0688C136.49 24.2326 130.076 24.6952 124.846 25.3602C121.935 25.7361 120.01 26.1216 120.553 26.2276C120.701 26.2662 125.783 25.8518 132 25.2928C132.543 25.2446 134.96 25.0711 137.427 24.9073C139.845 24.7434 142.065 24.5699 142.312 24.5217C143.447 24.3193 144.039 24.4254 143.496 24.7241C142.904 25.0711 142.756 25.0904 136.687 25.4952C127.461 26.112 122.428 26.7577 119.32 27.7022C117.05 28.4058 117.84 28.772 120.455 28.2323C123.366 27.6155 129.04 26.8348 134.763 26.2469C140.289 25.6879 140.93 25.6397 140.782 25.8325C140.634 25.9771 139.549 26.1313 137.279 26.3529C131.013 26.9505 124.648 28.001 122.675 28.7528C121.737 29.119 120.849 29.5431 121.096 29.5431C121.195 29.5431 122.231 29.3021 123.415 29.0033C124.796 28.666 127.214 28.2516 130.026 27.8854C132.444 27.5577 135.355 27.1625 136.44 26.989C139.351 26.5457 139.598 26.5264 139.302 26.7674C139.105 26.9505 139.154 26.9601 139.598 26.8445C139.993 26.7288 140.092 26.7866 140.042 27.0854C140.042 27.3071 139.894 27.3745 139.796 27.2493C139.499 26.9698 139.105 26.9794 137.082 27.2974C131.21 28.2516 128.151 29.5913 129.78 30.5454C130.421 30.9309 131.26 30.9213 131.26 30.5261C131.26 30.2466 132.197 29.5913 133.283 29.1094C134.171 28.7046 137.871 27.5191 138.217 27.5191C138.414 27.5191 138.661 27.9625 138.759 28.5022C138.957 29.331 139.253 29.5913 140.388 30.0442C141.621 30.5647 144.483 31.1815 145.568 31.1815C145.815 31.1815 145.47 30.9309 144.779 30.6225C142.213 29.5045 140.733 28.5889 140.388 27.9335C140.141 27.4806 140.19 27.4806 140.634 27.8275C142.016 28.8684 144.285 29.784 146.604 30.237C149.367 30.7767 150.551 30.8442 149.121 30.3816C148.627 30.2177 147.739 29.9189 147.147 29.7358C144.335 28.8009 140.832 25.9481 142.016 25.5337C142.41 25.3988 142.608 25.5048 142.855 26.0349C143.94 28.0974 146.95 29.1479 153.611 29.7358C155.436 29.8997 157.114 30.025 157.41 30.025C157.706 30.025 156.324 29.7069 154.301 29.3214C151.489 28.7817 150.255 28.454 148.775 27.8564C146.16 26.7674 144.729 25.9192 144.335 25.2542C144.039 24.7338 144.137 24.647 145.223 24.3579L146.407 24.0495L146.703 24.9362C146.999 25.9771 148.578 27.1914 150.206 27.6926C151.686 28.1359 154.548 28.6757 157.262 29.0033C160.469 29.3889 160.814 29.3021 158.347 28.7624C152.87 27.5962 149.022 25.5723 149.022 23.9049C149.022 23.5387 149.269 23.3652 149.959 23.2399C150.848 23.0857 150.897 23.1146 151.094 24.1651C151.39 25.3699 151.982 25.7843 154.893 26.6517C156.916 27.2685 162.196 28.3576 162.64 28.2612C162.837 28.2323 162.294 27.9914 161.455 27.7408C157.952 26.671 155.387 25.4084 153.759 24.0013C152.673 23.0664 152.722 22.5942 153.956 22.3821C154.499 22.2954 155.041 22.2183 155.189 22.2183C155.337 22.2183 155.436 22.4303 155.436 22.6809C155.436 23.2495 156.571 24.1266 158.15 24.782C159.482 25.3313 164.021 26.3626 165.107 26.3626C165.896 26.3626 165.649 26.218 163.478 25.4952C161.406 24.8012 159.038 23.529 158.692 22.9315C158.495 22.5942 158.544 22.546 158.84 22.7484C159.038 22.9026 159.729 23.2399 160.271 23.4905C160.863 23.7411 161.357 23.9627 161.357 23.9917C161.357 24.3001 168.215 25.9481 168.61 25.7265C168.708 25.6686 167.475 25.0711 165.896 24.3772C162.788 23.0472 160.863 22.0352 160.863 21.7557C160.913 21.6689 161.357 21.8328 161.85 22.1219C163.38 22.9411 164.218 23.2688 167.08 24.0977C169.892 24.9265 172.803 25.5434 173.593 25.4855C174.037 25.447 173.494 25.1578 171.373 24.2904C169.3 23.4423 165.304 21.0714 165.304 20.657C165.304 20.4449 169.054 19.963 176.356 19.2498C179.711 18.9318 179.908 18.9222 183.905 18.9896L188 19.0571V18.0837V17.1102H184.892C182.523 17.1102 181.339 17.0524 179.662 16.8693C177.145 16.5802 168.758 15.2983 168.758 15.1923C168.758 15.1538 169.251 15.0381 169.794 14.9321C171.126 14.7008 174.037 13.843 175.665 13.2069C176.356 12.9467 178.527 12.407 180.5 12.0022C182.474 11.607 183.806 11.2601 183.51 11.2408C182.671 11.1926 179.07 11.4914 176.06 11.8769C172.113 12.3877 168.511 13.0913 167.228 13.6213C166.587 13.8623 166.044 14.0165 165.896 13.949C165.551 13.737 169.202 12.4359 171.521 11.954C172.754 11.6841 174.481 11.3275 175.32 11.1637C176.159 10.9902 176.701 10.8264 176.553 10.7878C175.813 10.6529 169.35 11.395 166.636 11.9347L163.774 12.5033L164.959 12.0311C166.784 11.3275 169.794 10.5951 173.001 10.065C176.356 9.50597 177.047 9.32285 175.961 9.24575C174.678 9.14937 169.152 9.83366 165.847 10.4987C163.824 10.9131 161.949 11.4239 160.567 11.9636C158.446 12.7636 158.396 12.7732 157.804 12.5323C157.015 12.1949 157.755 11.9154 163.577 10.4023C168.264 9.17829 173.248 8.14704 174.432 8.14704C174.777 8.14704 175.32 8.08921 175.616 8.01211C176.603 7.7808 174.284 7.76152 170.879 7.97355C164.514 8.37835 158.495 9.86257 157.114 11.3468C156.768 11.7805 156.127 11.8191 155.732 11.4432C155.337 11.1251 155.831 10.7974 157.903 9.94931C161.159 8.59038 167.327 7.24108 172.31 6.77846C175.024 6.52788 175.32 6.41222 173.248 6.41222C171.175 6.41222 168.462 6.66281 165.304 7.13506C160.025 7.935 156.768 8.80241 154.696 9.94931C153.512 10.6143 152.969 10.6336 152.969 10.0264C152.969 9.23611 160.666 7.26035 167.031 6.42186C168.807 6.19055 170.238 6.04599 174.678 5.67011L175.912 5.56409L174.58 5.45808C172.705 5.31351 168.018 5.50627 164.366 5.88214C160.666 6.24838 154.252 8.00247 152.821 9.01444C152.722 9.09155 152.476 8.8506 152.278 8.48436L151.884 7.80971L158.1 6.64353C164.514 5.4388 168.215 4.94727 171.965 4.83162C177.639 4.6485 178.033 4.55212 173.938 4.38828C166.883 4.09914 158.396 5.14967 153.117 6.96158L151.489 7.52058V7.15434C151.489 6.8652 151.982 6.66281 153.66 6.2291C156.225 5.58337 162.393 4.54248 168.067 3.80037C170.238 3.51123 172.458 3.2221 173.001 3.15463C173.79 3.04861 173.642 3.03898 171.718 3.08717C168.462 3.17391 163.084 3.68471 160.518 4.1666C160.173 4.22443 159.383 4.35936 158.742 4.45574C157.459 4.6485 153.561 5.62192 152.278 6.0749L151.44 6.36403L151.686 5.9978C152.18 5.25568 159.926 3.74254 169.942 2.41252L174.284 1.83425L172.557 1.80533C169.695 1.75714 164.12 2.31614 160.518 3.0197C158.84 3.34739 157.064 3.75218 156.571 3.90638C155.387 4.31117 154.992 4.26298 155.485 3.78109C156.176 3.17391 157.36 2.59564 159.581 1.78606C163.429 0.359655 163.922 0.128345 163.38 0.0223293C162.59 -0.131876 159.285 0.542774 157.656 1.17887C155.535 2.03664 154.499 2.73057 153.956 3.76182C153.018 5.41953 152.328 5.58337 150.848 4.51357C149.861 3.81001 149.417 1.22706 150.157 0.69698C150.798 0.234362 149.565 0.494585 147.986 1.14996C145.47 2.18121 146.062 3.63652 149.565 4.98582C150.897 5.49663 151.489 6.12309 150.601 6.12309C150.255 6.12309 146.851 4.73524 145.716 4.11842C145.025 3.75218 144.039 1.64149 144.483 1.41982C144.581 1.36199 144.384 1.30416 143.989 1.30416C141.424 1.30416 140.486 3.36666 142.559 4.369C143.693 4.90872 146.851 5.90142 148.874 6.32548C149.861 6.53752 150.058 6.66281 149.91 7.04832L149.762 7.52058L147.739 6.94231C146.604 6.62426 144.532 5.93033 143.101 5.40025C140.93 4.59067 140.486 4.33045 140.24 3.78109C140.141 3.42449 139.845 3.13535 139.598 3.13535C138.562 3.13535 137.477 3.79073 137.477 4.43646C137.427 5.50627 139.944 6.25802 148.183 7.64587C149.91 7.935 150.058 7.99283 149.91 8.40726L149.762 8.8506L141.67 6.96158C137.23 5.92069 133.381 5.06293 133.135 5.06293C132.937 5.06293 132.74 5.21713 132.74 5.40989C132.74 6.29657 138.611 7.71333 146.703 8.75422C150.157 9.2072 150.996 9.35177 150.996 9.54453C150.996 9.67945 150.897 9.78547 150.749 9.78547C150.453 9.78547 145.914 9.16865 143.595 8.81205C141.424 8.48436 133.381 6.89412 131.013 6.31585C128.744 5.77612 128.053 5.7183 128.497 6.08454C129.385 6.79774 133.036 8.00247 136.588 8.75422C138.759 9.2072 138.809 9.22648 137.181 9.0048C136.243 8.87951 135.355 8.74458 135.207 8.71567C134.171 8.47472 126.03 7.29891 125.931 7.37601C125.635 7.54949 128.497 8.54219 131.161 9.16865C133.825 9.80475 138.661 10.5661 141.424 10.7974C142.262 10.8649 144.384 10.9517 146.111 10.9902C150.65 11.0866 152.87 11.2119 153.413 11.4143C153.709 11.5106 153.808 11.6167 153.66 11.6359C153.512 11.6649 151.933 11.6263 150.107 11.5588C147.098 11.4432 145.667 11.3661 139.894 11.0384C138.809 10.9709 136.292 10.7685 134.319 10.5951C132.345 10.4119 130.52 10.2674 130.322 10.2674C130.125 10.2674 129.73 10.2192 129.385 10.1517C128.941 10.065 129.04 9.96859 129.829 9.71801C131.408 9.22648 129.78 9.30358 127.362 9.8433C122.033 11.0288 119.961 12.3973 121.047 14.0261C121.491 14.6333 121.441 14.6429 120.553 14.4791C119.764 14.3249 119.665 14.1418 119.665 12.937C119.665 11.6263 119.764 11.5299 121.343 10.6529C122.231 10.1517 123.168 9.69873 123.415 9.6409C124.106 9.49634 123.908 9.39996 122.921 9.39996C121.737 9.39996 118.284 10.1324 116.803 10.7203C114.583 11.5781 113.892 12.7539 115.175 13.4671L115.817 13.8237L114.682 13.6599C113.547 13.5057 113.498 13.4671 113.794 12.5804C114.188 11.2022 115.274 10.3252 117.741 9.37104C118.925 8.90843 119.912 8.48436 119.912 8.43617C119.912 8.18559 117.79 8.38798 115.866 8.82169C111.573 9.77583 108.81 11.2504 109.156 12.3588C109.254 12.6961 109.254 12.966 109.156 12.966C108.662 12.966 106.64 12.4166 106.59 12.2817C106.59 12.0504 108.909 10.3445 110.389 9.49634C112.116 8.494 113.744 7.88681 115.866 7.43384C117.297 7.12543 117.494 7.02905 116.853 7.00977C114.879 6.93267 109.649 7.67478 107.824 8.28197C105.307 9.12046 104.469 9.75656 104.419 10.8649C104.37 11.8576 104.321 11.8865 103.432 11.7323C102.594 11.5877 102.544 11.4625 102.791 10.5565C103.334 8.63857 106.788 7.0676 112.708 6.00743C115.175 5.56409 115.521 5.37134 113.547 5.49663C111.277 5.63156 104.37 7.15434 102.643 7.90609C100.768 8.67712 99.1893 9.88185 99.1893 10.489V10.7974L98.2518 10.5179C97.117 10.1903 97.2157 10.0071 99.0413 8.86987C101.36 7.39528 106.047 5.93997 110.488 5.30387C112.906 4.95691 113.004 4.87017 111.031 4.87017C107.873 4.87017 101.903 5.7954 99.8307 6.61462C98.3505 7.19289 96.2289 8.7735 96.2289 9.30358C96.1796 9.78547 95.8835 9.73728 94.354 8.95662L93.3672 8.47472L95.4395 7.65551C98.2025 6.56643 102.15 5.38097 104.469 4.94727C105.505 4.75451 107.478 4.48465 108.909 4.34009C112.659 3.97385 112.758 3.86783 109.254 3.9353C102.643 4.06059 98.4492 4.84126 94.8474 6.65317C94.0087 7.07724 93.1699 7.53985 93.0219 7.68442C92.6272 8.07957 91.7884 8.01211 91.7884 7.58804C91.7884 6.87484 97.6104 4.84126 103.728 3.42449C105.307 3.04861 106.294 2.74984 105.949 2.74984C105.11 2.74984 101.163 3.26065 99.4853 3.5787C96.3769 4.18588 92.8245 5.50627 91.7884 6.4315C91.0976 7.01941 90.3082 7.17361 90.3082 6.72063C90.3082 6.41222 91.6897 5.67011 93.8113 4.86053C95.3408 4.25335 99.0906 3.02934 99.6333 2.9426C100.571 2.78839 104.074 1.78606 103.63 1.78606C102.692 1.78606 99.4853 2.15229 97.8571 2.45107C95.6368 2.84622 93.6633 3.53051 92.3311 4.369C91.6897 4.75451 90.9496 5.09184 90.7523 5.12075C90.1602 5.18822 90.2589 3.30884 90.8509 2.70165C91.0976 2.43179 91.443 1.9499 91.591 1.61258C91.8871 1.10177 91.7884 1.01503 91.147 1.01503C90.2589 1.01503 89.7161 1.17887 88.6307 1.79569C87.1998 2.59564 87.9399 4.76415 89.9135 5.47735C90.1602 5.57373 90.2589 5.77612 90.0615 5.91106C89.7655 6.14236 89.5188 6.0749 87.4959 5.25568C83.8941 3.77145 83.2527 3.43413 81.2791 2.027C80.8844 1.75714 80.391 1.54511 80.1443 1.54511C79.8976 1.54511 79.6509 1.86316 79.5522 2.25831C79.2562 3.59797 82.1179 5.0822 86.6571 5.9978C89.0254 6.46041 90.4562 6.9905 89.3708 6.9905C88.8774 6.9905 80.8351 5.29423 78.9108 4.77379C76.4439 4.12805 74.865 3.41485 74.2729 2.73057C74.0756 2.49926 73.6809 2.36433 73.1875 2.36433C72.5954 2.36433 72.4967 2.5089 72.6447 3.25101C72.8421 4.33045 74.1743 4.93763 77.8747 5.69902C80.3417 6.20983 86.8545 7.19289 88.976 7.38565C90.1108 7.48203 90.8016 7.80007 90.8016 8.20486C90.8016 8.31088 90.6536 8.31088 89.9135 8.20486C89.4694 8.12776 86.6078 7.67478 83.6474 7.20253C77.628 6.25802 75.2104 5.76649 74.2236 5.2846C73.0888 4.76415 72.398 4.88944 72.7928 5.5159C73.5822 6.77846 76.9373 7.48203 85.8677 8.25305C89.1241 8.53255 91.8377 8.80241 91.9857 8.86024C92.0844 8.91806 92.5778 9.13974 93.0219 9.34213L93.8606 9.71801L92.5285 9.55416C91.7884 9.45778 89.0747 9.1301 86.4597 8.83132C75.1117 7.52058 71.0165 7.0676 70.7698 7.11579C69.9804 7.26999 71.3619 7.79044 73.6809 8.22414C76.8386 8.80241 81.4271 9.23611 88.0386 9.59271C90.8016 9.73728 93.3672 9.89149 93.762 9.9204C94.502 9.97823 95.9329 10.3541 95.6368 10.4119C95.5382 10.4312 92.2324 10.2385 88.236 9.97823C80.7364 9.4867 75.9998 9.06263 70.6712 8.4169C68.9936 8.20486 67.4641 8.05066 67.3161 8.07957C66.9214 8.15668 69.2403 8.83132 71.0165 9.14937C72.4474 9.41923 73.1381 9.67945 72.0527 9.54453C71.4113 9.46742 69.5857 9.57344 69.5857 9.68909C69.5857 9.88185 73.0395 10.3927 76.8879 10.7685C79.1082 10.9902 80.8351 11.183 80.7857 11.2022C80.687 11.2215 79.2562 11.1733 77.6773 11.0962C71.5099 10.8071 71.3126 10.8071 72.6447 11.1637C73.7795 11.4432 82.5126 12.1949 84.7822 12.1949C86.6078 12.1949 89.4201 12.407 88.9267 12.5033C88.5813 12.5708 86.6078 12.5612 82.858 12.4744C79.7496 12.407 76.6412 12.3491 75.8518 12.3491C74.6676 12.3395 74.5196 12.3009 74.5196 12.0215C74.5196 11.0866 70.8192 12.3684 69.5857 13.7274C68.6483 14.7875 69.0923 16.2814 70.5725 16.8211C70.8192 16.9175 71.0659 17.0235 71.0659 17.0524C71.0659 17.1584 68.7963 17.1102 67.9575 16.9849C66.872 16.8307 66.0333 15.8766 65.7866 14.5273C65.5892 13.6117 65.7372 13.3033 66.6253 12.6576C67.2174 12.2335 67.5135 11.8576 67.3654 11.8287C66.724 11.7034 64.1584 12.4262 62.8262 13.1009C61.6421 13.6984 61.4447 13.9201 61.4447 14.7972C61.4447 15.5489 61.6914 15.9151 62.3328 16.2332C62.8262 16.4645 63.1223 16.6669 63.0236 16.6958C62.3328 16.8211 60.2112 16.4645 59.5205 16.1079C56.3134 14.4116 56.5601 12.3491 60.2606 10.3927C61.4447 9.77583 61.2967 9.5638 59.9645 9.78547C58.7804 9.97823 58.0403 10.2963 56.0667 11.4335C53.2051 13.1009 52.6623 14.6237 54.5372 15.7031C54.9319 15.9151 55.1293 16.1079 55.0306 16.1272C54.9319 16.1465 54.2412 16.0983 53.4024 16.0115C51.6262 15.8284 51.0835 15.4622 50.2447 13.8334C49.702 12.8118 49.7513 12.513 50.4914 11.5396C50.9355 10.9227 51.4782 10.3059 51.6262 10.171L51.9716 9.93004L50.3927 10.2192C49.554 10.3734 48.1231 10.7782 47.2843 11.1348C45.7548 11.742 45.6561 11.7998 45.7055 12.9178C45.7548 13.9105 45.9522 14.1707 47.0376 14.7875C47.7777 15.1827 48.3698 15.52 48.3698 15.5393C48.3698 15.6646 44.2253 14.9995 43.8799 14.8164C43.6332 14.6911 43.4359 13.7948 43.4359 12.8214C43.4359 10.5372 44.2746 9.74692 48.0738 8.59038C48.9619 8.32052 49.85 8.04102 50.0473 7.97355C50.294 7.89645 50.0967 7.8579 49.4059 7.8579C47.9258 7.8579 43.6826 8.7735 41.7583 9.53489C39.8341 10.2674 38.502 11.395 38.502 12.2238C38.502 12.8407 39.6367 13.9105 40.7222 14.3056C41.6103 14.6526 41.413 14.6719 39.4394 14.4406C37.2685 14.19 36.7751 13.7755 36.7751 12.0986C36.7751 10.9613 37.0218 10.4408 37.7125 9.93004C38.798 9.09155 40.8209 8.22414 42.8438 7.67478C44.472 7.24108 44.8174 6.9905 43.8799 6.9905C43.5839 6.9905 42.1037 7.24108 40.5249 7.53985C37.8605 8.06993 35.9363 8.70603 34.5055 9.54453C33.568 10.0746 33.568 12.7732 34.5055 13.284C34.8508 13.4864 35.0482 13.6695 34.9495 13.6888C34.8508 13.7081 33.9134 13.5828 32.9266 13.4093C31.1997 13.1105 31.1011 13.0623 31.1011 12.4937C31.1011 11.7323 32.3839 9.66018 33.3707 8.78313C34.2588 7.97355 35.9856 7.26999 38.2552 6.74955C41.1169 6.10381 40.3768 5.93033 36.8244 6.40259C30.1143 7.30854 27.8447 8.46509 28.2887 10.7107C28.4367 11.395 28.7328 12.1082 28.9301 12.2913L29.2755 12.6286L27.894 12.3877L26.5618 12.1467L26.8085 9.35177C26.9566 7.80971 27.3513 6.36403 27.6473 6.13273C28.2394 5.66047 27.894 5.50627 26.8579 5.78576C24.3416 6.45078 22.664 8.89879 23.6015 10.4698C23.9469 11.0095 24.0949 11.4721 23.9962 11.4914C23.8975 11.5106 23.1574 11.3757 22.4173 11.183L21.0358 10.8264L21.0852 9.21684C21.1345 7.76152 22.0226 6.25802 23.5028 5.09184C23.9962 4.73524 22.9601 4.87981 21.7266 5.35206C19.9504 6.03635 18.2728 7.20253 17.9768 7.99283C17.6808 8.72531 18.0261 9.17829 19.5557 10.2192C20.0984 10.5565 16.99 9.91076 15.0658 9.2843C14.1283 8.96625 13.3389 8.69639 13.3389 8.67712C13.3389 8.65784 12.5001 8.28197 11.4147 7.83862C10.3786 7.40492 8.84903 6.74955 8.01027 6.38331C5.93802 5.48699 5.24727 5.53518 5.5433 6.54715C5.74066 7.26999 5.98735 7.44347 8.15828 8.2916C10.8719 9.35177 14.4244 10.171 18.3715 10.6432C20.6411 10.9131 23.6508 11.5685 23.1081 11.6745C23.0094 11.6938 21.924 11.5781 20.7398 11.4143C19.5063 11.2601 17.8288 11.0673 17.0394 10.9998C16.2006 10.9324 15.2138 10.8167 14.8191 10.7396C14.4244 10.6625 12.8455 10.4216 11.3653 10.1999C9.88516 9.97823 7.12216 9.4867 5.19792 9.12046C3.32303 8.74458 1.49748 8.43617 1.1521 8.43617C0.757385 8.43617 0.510696 8.55183 0.510696 8.72531C0.510696 9.52525 6.62877 10.9324 12.3028 11.4528C14.079 11.6167 17.7794 11.848 20.4438 11.954C24.983 12.1371 25.427 12.1757 26.8085 12.5033C27.6473 12.7057 28.2394 12.8889 28.0914 12.9081C27.746 12.966 16.2499 12.6865 12.3521 12.5226C7.81291 12.3299 2.04021 12.0407 0.856064 11.954C-0.525436 11.8383 -0.180054 12.1757 1.49748 12.4648ZM49.0606 17.2163C53.6985 16.6573 54.2412 16.6283 55.9681 16.7922L57.3989 16.9368L55.228 17.1102C43.3372 18.0547 38.9953 18.3728 38.1072 18.3535C37.9099 18.3535 39.5381 18.1897 41.709 17.9873C43.8799 17.7849 47.1857 17.4379 49.0606 17.2163ZM73.1875 22.7195C73.6809 22.7002 74.9143 22.8158 75.9505 22.9797C77.6773 23.2495 80.243 23.5098 83.1047 23.7025C83.7954 23.7507 83.8941 23.7989 83.5487 23.8664C83.154 23.9435 81.4271 23.8278 77.5293 23.4616C72.3487 22.97 71.3126 22.7869 73.1875 22.7195ZM73.6315 13.2358C73.9769 12.8214 74.3716 12.4841 74.569 12.4841C74.7663 12.4841 75.161 12.5419 75.4571 12.619C76.2958 12.8118 80.8844 13.1587 83.6967 13.2358C85.0289 13.2744 86.065 13.3515 86.0157 13.3997C85.8677 13.525 81.2298 13.6406 81.0324 13.525C80.6377 13.3515 79.6509 13.4671 78.8615 13.7563C76.9373 14.4791 76.3945 14.8935 76.0985 15.7127L75.8518 16.5802L75.161 16.1946C74.3716 15.7802 73.1875 14.614 73.0888 14.2189C73.0395 14.084 73.2861 13.6406 73.6315 13.2358ZM78.2694 21.4762C79.0095 21.428 79.6016 21.746 79.0095 21.8617C78.7628 21.9099 78.3188 21.9195 77.9734 21.881C77.332 21.8039 77.5293 21.5244 78.2694 21.4762ZM80.391 20.6377C80.5884 20.6088 80.9337 20.6088 81.0818 20.6377C81.4765 20.7148 80.9337 20.9654 80.391 20.9654C79.8483 20.9654 79.7989 20.7052 80.391 20.6377ZM81.1804 14.0261C81.2791 14.0261 81.9699 14.0743 82.6606 14.1418C83.9434 14.2574 83.9434 14.2671 83.5487 14.8357C82.858 15.867 83.1047 16.8211 84.2888 17.3223C85.0289 17.6596 85.1276 17.7849 84.6835 17.7849C83.9928 17.7849 82.8086 17.3223 81.7232 16.6283C81.0818 16.2332 80.6377 14.0261 81.1804 14.0261ZM85.5716 22.6616C88.384 22.9797 88.68 23.0375 87.9399 23.1435C87.2492 23.2399 86.9531 23.2303 86.2624 23.0857C85.769 22.9893 84.6342 22.7869 83.6474 22.6424C80.9831 22.2472 81.9205 22.2568 85.5716 22.6616ZM84.3382 19.2306C85.8677 18.7969 86.4597 18.7101 87.3972 18.7294C88.0386 18.7487 88.6307 18.7776 88.7293 18.7872C88.7787 18.8065 87.7919 19.0282 86.5091 19.2884C85.1769 19.5486 83.6474 19.8859 83.006 20.0498L81.8712 20.3389L82.1672 20.0498C82.3646 19.8956 83.3514 19.5197 84.3382 19.2306ZM99.288 11.4528C100.965 11.8672 100.62 11.8769 91.5417 11.6167C84.3875 11.4143 84.3875 11.3854 91.5417 11.3083C98.3012 11.2408 98.4492 11.2408 99.288 11.4528ZM89.2227 20.6281C89.3708 20.657 89.2227 20.7341 88.8774 20.8015C88.384 20.8883 88.3346 20.8786 88.6307 20.7437C88.7787 20.6473 89.0747 20.5991 89.2227 20.6281ZM90.4069 14.3731C91.0483 14.3442 92.7258 14.3153 94.1073 14.3153C95.5382 14.3153 99.3373 14.2092 102.495 14.0743C108.564 13.8237 110.636 13.7852 111.228 13.9008C111.425 13.949 110.093 14.0261 108.218 14.084C106.393 14.1418 102.988 14.2671 100.669 14.3538C95.1928 14.5658 89.3214 14.6622 89.3214 14.5273C89.3214 14.4791 89.8148 14.4116 90.4069 14.3731ZM92.6272 13.3033C94.502 13.2744 97.0677 13.2069 98.4492 13.1491C99.7813 13.0913 102.002 13.0238 103.383 12.9949C105.603 12.9563 105.998 12.9756 107.232 13.2358L108.613 13.5153L103.58 13.5731C97.9065 13.631 89.3214 13.5539 89.3214 13.4382C89.3214 13.3997 90.8016 13.3418 92.6272 13.3033ZM93.8606 15.4814C98.0545 15.3369 104.074 14.9706 108.021 14.6237C112.56 14.2285 113.646 14.2092 115.817 14.4695L117.692 14.6911L115.718 14.7008C113.991 14.7008 110.537 14.855 104.863 15.1827C101.36 15.3851 99.2386 15.4911 96.2289 15.626C94.4527 15.6935 92.4298 15.7899 91.6404 15.8188C90.6536 15.867 90.3082 15.838 90.3082 15.7417C90.3082 15.6453 91.3443 15.5585 93.8606 15.4814ZM93.0219 12.3491C94.4034 12.3395 97.0183 12.2913 98.9426 12.2528C102.1 12.1757 102.495 12.1853 103.334 12.3781L104.271 12.5804H97.265C92.2818 12.5804 90.2589 12.5515 90.4069 12.4744C90.5056 12.4166 91.6897 12.3588 93.0219 12.3491ZM95.0448 16.4259C97.2157 16.397 99.9294 16.3199 101.163 16.2525C104.814 16.0597 112.067 15.5585 114.978 15.2983C117.938 15.0381 121.096 14.9224 121.54 15.0574C121.688 15.1056 119.665 15.2694 117.05 15.414C112.462 15.6549 100.127 16.5223 98.0051 16.744C97.0677 16.8404 97.0677 16.85 97.9558 16.9753C99.0413 17.1295 102.544 17.1488 105.357 17.0139C106.442 16.956 110.093 16.8018 113.498 16.6669C116.902 16.532 120.06 16.3778 120.504 16.3296C120.997 16.2814 121.392 16.2621 121.392 16.2814C121.392 16.4067 117.099 16.7247 112.906 16.9175C107.084 17.1873 105.11 17.3608 105.11 17.5825C105.11 17.7271 105.85 17.7752 109.551 17.8813C111.968 17.9487 115.027 17.9776 116.31 17.9391C120.8 17.8234 127.51 16.9657 130.372 16.1561C131.161 15.9344 131.21 15.9344 133.579 16.079C139.401 16.4452 148.923 16.8115 164.317 17.2644C167.426 17.3512 171.225 17.4765 172.705 17.5439L175.418 17.6596L173.198 17.7174C169.646 17.8138 152.13 17.968 133.579 18.0837C121.096 18.1608 113.004 18.1608 104.025 18.074C97.2157 18.0162 91.4923 17.9584 91.3443 17.9391C91.1963 17.9198 91.0976 17.5825 91.0976 17.1873L91.1963 16.4838L95.0448 16.4259ZM93.2192 19.3944C94.206 18.9993 94.5514 18.9414 95.8835 18.9414H97.3637L94.7487 19.4908C93.2686 19.7992 91.9364 20.0883 91.6897 20.1462C91.147 20.2618 91.6404 20.0209 93.2192 19.3944ZM92.1831 22.0834C92.4298 22.0545 93.0712 22.0641 93.6633 22.093C94.5514 22.1316 94.6501 22.1701 94.206 22.2858C93.8606 22.3629 93.1699 22.4689 92.6765 22.5171C91.9364 22.5942 91.7884 22.5749 91.7884 22.3725C91.7884 22.2376 91.9857 22.1123 92.1831 22.0834ZM97.1664 21.2738C98.2518 21.3413 99.1893 21.4473 99.1893 21.5051C99.1893 21.5726 98.3505 21.5533 96.7223 21.4569C95.3902 21.3798 94.4527 21.2738 94.6994 21.2256C94.8968 21.187 96.0316 21.2063 97.1664 21.2738ZM99.6827 19.5968L101.36 19.0667L114.978 19.0089C122.428 18.9703 129.632 18.9222 131.013 18.8932L133.48 18.8354L131.507 18.98C130.421 19.0474 127.855 19.2113 125.832 19.3269C120.603 19.6257 114.484 20.0883 107.972 20.6666L105.603 20.869L101.656 20.5606C99.4853 20.3871 97.7584 20.2136 97.8078 20.1847C97.9065 20.1558 98.7452 19.8859 99.6827 19.5968ZM109.551 21.9292C109.797 21.8521 110.044 21.8231 110.044 21.881C110.044 21.9292 109.797 22.0448 109.551 22.1219C109.304 22.199 109.057 22.2183 109.057 22.1701C109.057 22.1123 109.304 22.0063 109.551 21.9292ZM111.129 21.0618C112.511 20.8112 112.955 20.9075 111.672 21.187C111.129 21.3027 110.537 21.4665 110.389 21.5436C110.192 21.64 110.093 21.6208 110.093 21.4762C110.044 21.3605 110.537 21.1774 111.129 21.0618ZM124.796 15.8188C126.523 15.5875 126.869 15.5682 127.905 15.6742C128.99 15.7899 128.99 15.7995 126.819 15.9151C125.586 15.973 124.204 16.0597 123.711 16.0983C122.28 16.2139 122.773 16.0886 124.796 15.8188ZM126.819 12.8889C126.819 12.0793 127.066 11.2215 127.362 10.9902L127.905 10.5758L129.533 10.9324C130.47 11.1348 132.493 11.4143 134.072 11.5685C136.835 11.8383 137.23 11.848 145.618 11.8865L154.301 11.9251L155.14 12.1949L155.929 12.4648L144.483 12.4166C137.575 12.3877 131.951 12.3202 130.372 12.2431C127.707 12.1082 127.214 12.166 128.595 12.4359C130.914 12.8889 134.319 13.072 141.374 13.1491L147.295 13.2069L142.213 13.3418C137.97 13.4479 137.181 13.496 137.279 13.631C137.526 13.9105 140.93 14.1418 145.963 14.2189L150.749 14.2863L146.308 14.3056C143.841 14.3153 141.572 14.3538 141.177 14.402C140.19 14.5273 140.832 14.7586 142.707 14.9995C144.187 15.173 144.828 15.1923 149.515 15.1441C155.14 15.0863 161.603 14.9417 162.886 14.8453C163.429 14.8068 165.008 15.0959 168.462 15.9151L173.297 17.0428L171.373 16.9849C167.672 16.8789 163.034 16.7247 160.37 16.6283C158.89 16.5802 155.091 16.4452 151.982 16.3392C141.522 15.973 133.825 15.626 130.273 15.3561C125.783 15.0188 125.832 15.0285 126.375 14.6815C126.622 14.508 126.819 13.6984 126.819 12.8889ZM141.374 9.49634C142.361 9.60235 145.025 9.79511 147.196 9.9204C150.305 10.0939 151.39 10.1999 151.834 10.3734C152.525 10.624 152.673 10.942 152.13 10.942C150.897 10.942 138.957 9.42887 139.401 9.32285C139.45 9.30358 140.338 9.38068 141.374 9.49634ZM153.265 20.1943C156.472 20.3196 159.581 20.3871 160.617 20.3582C162.689 20.2907 162.788 20.3582 161.11 20.6377L159.877 20.8497L156.768 20.5991C154.351 20.3967 152.673 20.3389 148.775 20.31L143.841 20.2715L145.766 20.1172C147.542 19.9823 148.035 19.9823 153.265 20.1943ZM154.992 12.9756C156.719 12.966 157.36 13.0045 157.607 13.1202C157.854 13.2455 157.706 13.2647 156.818 13.2165C156.176 13.1876 154.351 13.1587 152.722 13.1491C150.305 13.1394 150.058 13.1202 151.242 13.0623C152.032 13.0238 153.759 12.9852 154.992 12.9756ZM160.715 13.9876C161.603 14.2189 161.258 14.2478 158.84 14.1707L156.768 14.1032L158.446 13.9587C159.926 13.8334 160.173 13.843 160.715 13.9876ZM160.715 21.2256C160.814 21.2931 160.814 21.4087 160.715 21.4665C160.567 21.534 160.469 21.4858 160.469 21.3509C160.469 21.216 160.567 21.1678 160.715 21.2256ZM162.048 13.2647C162.64 13.0527 162.689 13.0623 162.64 13.4671C162.59 13.7948 162.442 13.8719 161.998 13.7948C161.209 13.6599 161.258 13.5539 162.048 13.2647Z" fill="#003618"/>
<path d="M43.8309 29.4466C44.0283 29.4466 45.9031 29.196 47.9754 28.8876C51.6265 28.3383 58.3366 27.6347 65.5402 27.0372C67.5631 26.8637 69.29 26.748 69.3886 26.7769C69.734 26.8444 67.6124 27.3263 66.971 27.3263C66.0336 27.3263 56.5111 28.2515 54.1428 28.5599C51.1331 28.9744 48.6661 29.4852 47.0873 30.0538L45.7551 30.5453L47.2353 30.3333C48.0247 30.2273 49.0115 30.0635 49.3569 29.9767C51.2318 29.5334 62.7278 28.0395 65.6389 27.8564L66.7737 27.7889L65.6882 28.0588C64.7508 28.3094 58.3366 30.1887 56.4124 30.7767C54.8829 31.2585 51.8239 32.4536 51.8239 32.5693C51.8239 32.7235 52.9587 32.8295 53.6001 32.7428C54.3402 32.6368 55.8203 32.1356 60.2115 30.4586C64.208 28.9262 65.5895 28.4828 64.9481 28.9647C63.2706 30.1598 63.3693 31.8465 65.0961 32.5115C65.6389 32.7235 66.2803 32.9259 66.4776 32.9452C66.7243 32.9741 66.8723 32.0103 66.8723 30.8152C66.8723 29.3021 67.0697 28.4443 67.5631 28.0299C68.3525 27.307 69.1419 27.2974 68.5005 28.0202C68.0071 28.5118 68.2045 30.8248 68.7472 31.2296C69.734 32.0007 70.1781 32.232 70.8688 32.3476C71.6089 32.4633 71.6583 32.444 71.4116 32.1934C70.2768 31.0561 70.7208 26.6227 72.0036 26.324C72.6944 26.1601 72.8424 26.1601 66.3789 26.4589C57.6459 26.8733 47.5807 28.0106 44.2749 28.9647C43.3868 29.2153 43.1895 29.4466 43.8309 29.4466Z" fill="#003618"/>
</svg>
